<?xml version="1.0" encoding="utf-8"?>
<!-- Generator: Adobe Illustrator 25.2.1, SVG Export Plug-In . SVG Version: 6.00 Build 0)  -->
<svg version="1.1" id="Layer_1" xmlns="http://www.w3.org/2000/svg" xmlns:xlink="http://www.w3.org/1999/xlink" x="0px" y="0px"
	 viewBox="0 0 184.25 155.91" style="enable-background:new 0 0 184.25 155.91;" xml:space="preserve">
<style type="text/css">
	.st0{fill:#03383D;}
	.st1{fill:#57C2B4;}
	.st2{fill:#FFFFFF;}
</style>
<g>
	<g>
		<g>
			<path class="st0" d="M-231.93,131.84c-1.18,0.02-2.04,0.09-2.88,0.22c0.06-0.38,0.06-0.75,0-1.12c2.65,0.06,4.53,0.06,7.18,0
				c-0.06,0.38-0.06,0.75,0,1.12c-0.84-0.13-1.71-0.2-2.89-0.22c-0.04,1.65-0.02,3.81,0.06,5.06h-1.52
				C-231.9,135.65-231.89,133.48-231.93,131.84z"/>
			<path class="st0" d="M-227.45,133.91c0-1.98,1.5-3.12,4.03-3.12s4.02,1.15,4.02,3.12s-1.49,3.12-4.02,3.12
				S-227.45,135.88-227.45,133.91z M-220.78,133.94c0-1.41-0.99-2.25-2.64-2.25c-1.67,0-2.64,0.84-2.64,2.25
				c0,1.39,0.97,2.19,2.64,2.19C-221.77,136.13-220.78,135.33-220.78,133.94z"/>
			<path class="st0" d="M-214.94,137.08c-2.31,0-3.56-1.17-3.56-3.15c0-1.22-0.02-2.27-0.06-3c0.48,0.07,1.04,0.08,1.49,0
				c-0.05,0.73-0.06,1.75-0.06,3.03c0,1.39,0.74,2.22,2.2,2.22c1.44,0,2.2-0.83,2.2-2.22c0-1.28-0.01-2.3-0.06-3.03
				c0.48,0.07,1.04,0.08,1.49,0c-0.04,0.73-0.06,1.91-0.06,3C-211.37,135.91-212.7,137.08-214.94,137.08z"/>
			<path class="st0" d="M-210.43,133.89c0-2.03,1.65-3.11,4.25-3.11c0.93,0,2,0.14,3.28,0.67c-0.06,0.46-0.06,0.81,0,1.27
				c-1.29-0.78-2.4-0.97-3.2-0.98c-1.79-0.01-2.93,0.77-2.93,2.15c0,1.3,0.96,2.18,2.88,2.18c1.14,0,2.25-0.33,3.25-1.27
				c-0.05,0.47,0.03,0.92,0.09,1.24c-0.91,0.66-1.94,1-3.49,1C-208.94,137.04-210.43,135.83-210.43,133.89z"/>
			<path class="st0" d="M-196.3,136.9c0.04-0.6,0.06-1.44,0.07-2.33c-1.34-0.08-2.76-0.07-4.09,0.01c0.01,0.89,0.03,1.73,0.08,2.32
				h-1.46c0.1-1.5,0.1-4.47,0-5.97c0.5,0.07,0.98,0.08,1.44,0c-0.04,0.68-0.06,1.67-0.07,2.69c1.31,0.08,2.74,0.09,4.09,0.01
				c-0.01-1.02-0.03-2.01-0.07-2.7c0.5,0.07,0.98,0.08,1.43,0c-0.09,1.5-0.09,4.49,0.02,5.97H-196.3z"/>
			<path class="st0" d="M-193.59,136.31c0.06-0.45,0.06-0.89,0-1.34c0.75,0.72,2.47,1.07,3.93,1.07c1.19,0,1.69-0.26,1.69-0.79
				c0-0.71-0.75-0.79-2.54-0.94c-1.96-0.18-3.15-0.49-3.15-1.7c0-1.19,1.07-1.78,3.24-1.78c1.53,0,2.44,0.21,3.57,0.48
				c-0.06,0.43-0.06,0.84,0,1.25c-0.93-0.38-2.16-0.78-3.62-0.78c-1.23,0-1.75,0.25-1.75,0.79c0,0.64,0.64,0.81,2.28,0.94
				c2.06,0.16,3.41,0.44,3.41,1.73c0,1.19-1.09,1.75-3.26,1.75C-191.25,136.99-192.58,136.69-193.59,136.31z"/>
			<path class="st0" d="M-183.33,131.84c-1.18,0.02-2.04,0.09-2.88,0.22c0.06-0.38,0.06-0.75,0-1.12c2.65,0.06,4.53,0.06,7.18,0
				c-0.06,0.38-0.06,0.75,0,1.12c-0.84-0.13-1.71-0.2-2.89-0.22c-0.04,1.65-0.02,3.81,0.06,5.06h-1.52
				C-183.3,135.65-183.29,133.48-183.33,131.84z"/>
			<path class="st0" d="M-173.92,136.9c-0.15-0.4-0.3-0.83-0.47-1.25c-1.03-0.03-2.46-0.03-3.5-0.01c-0.18,0.44-0.35,0.87-0.51,1.26
				h-1.57c0.97-1.99,1.87-3.98,2.71-5.97c0.58,0.07,1.69,0.1,2.27,0c0.84,1.99,1.75,3.98,2.72,5.97H-173.92z M-174.72,134.83
				c-0.44-1.11-0.93-2.21-1.44-3.16c-0.33,0.61-0.87,1.88-1.39,3.16C-176.7,134.85-175.58,134.85-174.72,134.83z"/>
			<path class="st0" d="M-172.2,133.89c0-2.03,1.65-3.11,4.25-3.11c0.93,0,2,0.14,3.28,0.67c-0.06,0.46-0.06,0.81,0,1.27
				c-1.29-0.78-2.4-0.97-3.2-0.98c-1.79-0.01-2.93,0.77-2.93,2.15c0,1.3,0.96,2.18,2.88,2.18c1.14,0,2.25-0.33,3.25-1.27
				c-0.05,0.47,0.03,0.92,0.09,1.24c-0.91,0.66-1.94,1-3.49,1C-170.71,137.04-172.2,135.83-172.2,133.89z"/>
			<path class="st0" d="M-156.65,136.9h-1.74c-0.05-0.83-1.24-2.72-3.63-2.49c0.01,0.8,0.04,1.64,0.08,2.49h-1.52
				c0.1-1.5,0.1-4.47,0-5.97c0.51,0.07,1.02,0.08,1.5,0c-0.04,0.77-0.06,1.63-0.06,2.57c2.03,0.04,3.1-1.4,3.61-2.56
				c0.5,0.07,1.26,0.08,1.89,0c-0.87,1.37-2.64,2.7-3.93,2.94v0.1C-159.15,134.13-157.02,135.3-156.65,136.9z"/>
			<path class="st0" d="M-150.95,131.84c-1.18,0.02-2.04,0.09-2.88,0.22c0.06-0.38,0.06-0.75,0-1.12c2.65,0.06,4.53,0.06,7.18,0
				c-0.06,0.38-0.06,0.75,0,1.12c-0.84-0.13-1.71-0.2-2.89-0.22c-0.04,1.65-0.02,3.81,0.06,5.06h-1.52
				C-150.91,135.65-150.91,133.48-150.95,131.84z"/>
			<path class="st0" d="M-145.88,130.94c0.98,0.08,4.96,0.14,6.42,0.02c-0.03,0.39-0.03,0.8,0,1.2c-1.12-0.22-3.46-0.34-4.98-0.33
				c-0.02,0.57-0.02,1.14-0.02,1.71c1.49,0.02,3.34-0.04,4.42-0.11c-0.03,0.33-0.03,0.69,0,1.01c-1.09-0.06-2.93-0.12-4.42-0.09
				c0,0.54,0,1.1,0.03,1.65c1.52,0.02,3.85-0.11,4.96-0.32c-0.03,0.4-0.03,0.83,0,1.23h-6.42
				C-145.78,135.38-145.78,132.41-145.88,130.94z"/>
			<path class="st0" d="M-138.66,133.89c0-2.03,1.65-3.11,4.25-3.11c0.93,0,1.99,0.14,3.28,0.67c-0.06,0.46-0.06,0.81,0,1.27
				c-1.29-0.78-2.4-0.97-3.2-0.98c-1.79-0.01-2.93,0.77-2.93,2.15c0,1.3,0.96,2.18,2.88,2.18c1.14,0,2.25-0.33,3.25-1.27
				c-0.05,0.47,0.03,0.92,0.09,1.24c-0.91,0.66-1.94,1-3.49,1C-137.17,137.04-138.66,135.83-138.66,133.89z"/>
			<path class="st0" d="M-124.53,136.9c0.04-0.6,0.06-1.44,0.07-2.33c-1.34-0.08-2.76-0.07-4.09,0.01c0.01,0.89,0.03,1.73,0.08,2.32
				h-1.46c0.1-1.5,0.1-4.47,0-5.97c0.5,0.07,0.98,0.08,1.44,0c-0.04,0.68-0.06,1.67-0.07,2.69c1.31,0.08,2.74,0.09,4.09,0.01
				c-0.01-1.02-0.03-2.01-0.07-2.7c0.5,0.07,0.98,0.08,1.43,0c-0.09,1.5-0.09,4.49,0.02,5.97H-124.53z"/>
			<path class="st0" d="M-120.34,132.05c-0.02,1.61,0,3.24,0.07,4.85h-1.44c0.06-1.99,0.06-3.98,0-5.97c0.53,0.06,1.46,0.08,1.99,0
				c1.23,1.66,2.52,3.29,3.87,4.9c0.02-1.63,0.01-3.28-0.07-4.9c0.5,0.07,0.98,0.08,1.43,0c-0.06,1.99-0.05,3.98,0.02,5.97h-1.94
				C-117.67,135.26-118.98,133.63-120.34,132.05z"/>
			<path class="st0" d="M-113.42,133.91c0-1.98,1.5-3.12,4.03-3.12c2.53,0,4.02,1.15,4.02,3.12s-1.49,3.12-4.02,3.12
				C-111.92,137.02-113.42,135.88-113.42,133.91z M-106.74,133.94c0-1.41-0.99-2.25-2.64-2.25c-1.67,0-2.64,0.84-2.64,2.25
				c0,1.39,0.97,2.19,2.64,2.19C-107.74,136.13-106.74,135.33-106.74,133.94z"/>
			<path class="st0" d="M-104.31,130.94c0.51,0.07,1.05,0.09,1.51,0c-0.08,1.13-0.1,3.62-0.06,5.07c1.18,0,3.79-0.12,4.87-0.3
				c-0.03,0.48-0.03,0.8,0,1.2h-6.32C-104.25,134.92-104.25,132.92-104.31,130.94z"/>
			<path class="st0" d="M-97.51,133.91c0-1.98,1.5-3.12,4.03-3.12c2.53,0,4.02,1.15,4.02,3.12s-1.49,3.12-4.02,3.12
				C-96.01,137.02-97.51,135.88-97.51,133.91z M-90.84,133.94c0-1.41-0.99-2.25-2.64-2.25c-1.67,0-2.64,0.84-2.64,2.25
				c0,1.39,0.97,2.19,2.64,2.19C-91.83,136.13-90.84,135.33-90.84,133.94z"/>
			<path class="st0" d="M-88.72,133.88c0-2.02,1.59-3.08,4.2-3.08c0.97,0,2.39,0.14,3.68,0.67c-0.06,0.52-0.06,0.95,0,1.28
				c-1.05-0.63-2.4-0.99-3.66-0.99c-1.78,0-2.82,0.82-2.82,2.11c0,1.3,0.99,2.17,2.69,2.17c0.92,0,2.15-0.26,2.73-1.39
				c-1.29,0-2.62,0.06-3.34,0.14c0.06-0.31,0.04-0.77-0.02-1.15c1.46,0.06,3.11,0.06,4.5,0c-0.06,0.4-0.06,0.99,0,1.48
				c-0.59,1.26-2.19,1.88-3.87,1.88C-87.29,137.02-88.72,135.8-88.72,133.88z"/>
			<path class="st0" d="M-79.62,130.94c0.51,0.07,1.03,0.08,1.51,0c-0.1,1.5-0.1,4.49,0.02,5.97h-1.52
				C-79.52,135.41-79.52,132.43-79.62,130.94z"/>
			<path class="st0" d="M-76.71,130.94c0.98,0.08,4.96,0.14,6.42,0.02c-0.03,0.39-0.03,0.8,0,1.2c-1.12-0.22-3.46-0.34-4.97-0.33
				c-0.02,0.57-0.02,1.14-0.02,1.71c1.49,0.02,3.34-0.04,4.42-0.11c-0.03,0.33-0.03,0.69,0,1.01c-1.09-0.06-2.93-0.12-4.42-0.09
				c0,0.54,0,1.1,0.03,1.65c1.52,0.02,3.84-0.11,4.96-0.32c-0.03,0.4-0.03,0.83,0,1.23h-6.42
				C-76.61,135.38-76.61,132.41-76.71,130.94z"/>
			<path class="st0" d="M-69.25,136.31c0.06-0.45,0.06-0.89,0-1.34c0.75,0.72,2.47,1.07,3.93,1.07c1.19,0,1.69-0.26,1.69-0.79
				c0-0.71-0.75-0.79-2.54-0.94c-1.96-0.18-3.15-0.49-3.15-1.7c0-1.19,1.07-1.78,3.24-1.78c1.53,0,2.44,0.21,3.57,0.48
				c-0.06,0.43-0.06,0.84,0,1.25c-0.93-0.38-2.16-0.78-3.62-0.78c-1.23,0-1.75,0.25-1.75,0.79c0,0.64,0.64,0.81,2.28,0.94
				c2.06,0.16,3.41,0.44,3.41,1.73c0,1.19-1.09,1.75-3.26,1.75C-66.91,136.99-68.24,136.69-69.25,136.31z"/>
		</g>
	</g>
	<path class="st0" d="M-152.66,71.78l0.4-14.33c0,0,1.69-3.54,3.46-0.4v8.53c0,0,0.39,1.03,1.03,0.13c0.64-0.9,1.9-0.98,2.39,0.44
		c0,0,0.75,0.28,0.9-0.03c0.15-0.31,1.77-1.05,2.29,0.77c0,0-0.03,0.23,0.44,0.18c0.46-0.05,1.91-0.67,2.01,0.77
		c0.1,1.44,0.44,8,0,10.67c-0.44,2.67-7.05,5.55-12.27,0.23c0,0-5.37-6.56-6.74-7.15c0,0-1.69-2.83,1.41-2.49
		C-154.45,69.4-152.66,71.78-152.66,71.78z"/>
	<path class="st1" d="M-123.3,96.92l9.6,5.86l-31.54,21.52c-1.48,1.01-3.43,1.02-4.92,0.02l-46.38-31.04
		c-1.44-0.96-1.68-2.98-0.51-4.26l4.72-5.15c0.22-0.24,0.59-0.29,0.87-0.11l42.37,28.03c0.77,0.51,1.78,0.52,2.56,0.02L-123.3,96.92
		z"/>
	<path class="st1" d="M-122.48,73.45l12.19,8.48l-34.62,23.61c-1.52,1.04-3.53,1.05-5.06,0.02l-48.1-32.19
		c-3.06-2.05-3.09-6.54-0.05-8.62l47.02-32.25c2.64-1.81,6.13-1.8,8.75,0.03l33.51,23.36l-12.33,8.85l-26.99-18.43l-33.08,22.06
		l32.5,22.78L-122.48,73.45z"/>
</g>
<g>
	<path class="st1" d="M381.03,60.59l11.44,6.99l-37.61,25.66c-1.77,1.2-4.09,1.22-5.86,0.03l-55.31-37.01
		c-1.72-1.15-2.01-3.56-0.61-5.08l5.62-6.14c0.27-0.29,0.71-0.34,1.03-0.13l50.52,33.43c0.92,0.61,2.12,0.62,3.05,0.02L381.03,60.59
		z"/>
	<path class="st1" d="M382,32.59l14.53,10.11l-41.29,28.15c-1.82,1.24-4.21,1.25-6.04,0.03L291.86,32.5
		c-3.65-2.44-3.68-7.8-0.06-10.28l56.07-38.46c3.15-2.16,7.31-2.14,10.44,0.04l39.96,27.86l-14.71,10.55L351.37,0.24l-39.45,26.3
		l38.76,27.17L382,32.59z"/>
</g>
<path class="st2" d="M84.71,65.06l0.41-14.43c0,0,1.7-3.57,3.49-0.41v8.58c0,0,0.39,1.04,1.04,0.13c0.65-0.91,1.92-0.98,2.41,0.44
	c0,0,0.75,0.28,0.91-0.03c0.16-0.31,1.79-1.06,2.3,0.78c0,0-0.03,0.23,0.44,0.18s1.92-0.67,2.02,0.78c0.1,1.45,0.44,8.05,0,10.74
	c-0.44,2.69-7.1,5.59-12.35,0.23c0,0-5.41-6.6-6.78-7.2c0,0-1.7-2.85,1.42-2.51C82.9,62.67,84.71,65.06,84.71,65.06z"/>
<path class="st2" d="M120.69,90.37l9.66,5.9L98.6,117.94c-1.49,1.02-3.45,1.03-4.95,0.02L46.96,86.72c-1.45-0.97-1.69-3-0.51-4.29
	l4.75-5.18c0.23-0.25,0.6-0.29,0.87-0.11l42.65,28.22c0.78,0.52,1.79,0.52,2.58,0.02L120.69,90.37z"/>
<path class="st2" d="M120.38,66.74l12.27,8.53L97.79,99.05c-1.53,1.05-3.55,1.06-5.09,0.02l-48.42-32.4
	c-3.08-2.06-3.11-6.58-0.05-8.68l47.34-32.47c2.66-1.82,6.17-1.81,8.81,0.03l33.73,23.52l-12.42,8.91L94.52,39.43l-33.3,22.2
	l32.72,22.93L120.38,66.74z"/>
<g>
	<path class="st2" d="M3.15,126.36c-1.25,0.02-2.18,0.09-3.06,0.23c0.07-0.4,0.07-0.79,0-1.19c2.82,0.07,4.83,0.07,7.64,0
		c-0.07,0.4-0.07,0.79,0,1.19c-0.9-0.14-1.82-0.21-3.08-0.23c-0.04,1.76-0.02,4.06,0.07,5.39H3.1
		C3.18,130.42,3.19,128.11,3.15,126.36z"/>
	<path class="st2" d="M7.91,128.56c0-2.11,1.59-3.33,4.29-3.33s4.28,1.23,4.28,3.33c0,2.1-1.59,3.32-4.28,3.32
		S7.91,130.66,7.91,128.56z M15.01,128.59c0-1.5-1.06-2.4-2.81-2.4c-1.77,0-2.81,0.9-2.81,2.4c0,1.48,1.03,2.33,2.81,2.33
		C13.96,130.92,15.01,130.08,15.01,128.59z"/>
	<path class="st2" d="M21.22,131.94c-2.46,0-3.8-1.25-3.8-3.35c0-1.3-0.02-2.41-0.07-3.19c0.51,0.08,1.11,0.08,1.59,0
		c-0.05,0.78-0.07,1.86-0.07,3.22c0,1.48,0.79,2.36,2.35,2.36c1.54,0,2.34-0.89,2.34-2.36c0-1.36-0.01-2.45-0.06-3.22
		c0.51,0.08,1.11,0.08,1.59,0c-0.04,0.78-0.06,2.03-0.06,3.19C25.03,130.69,23.61,131.94,21.22,131.94z"/>
	<path class="st2" d="M26.02,128.54c0-2.16,1.76-3.31,4.53-3.31c0.99,0,2.12,0.14,3.49,0.71c-0.06,0.49-0.06,0.86,0,1.36
		c-1.37-0.83-2.56-1.03-3.41-1.04c-1.91-0.01-3.12,0.82-3.12,2.29c0,1.38,1.02,2.32,3.07,2.32c1.21,0,2.4-0.35,3.46-1.36
		c-0.05,0.5,0.03,0.98,0.09,1.32c-0.96,0.7-2.06,1.07-3.72,1.07C27.6,131.89,26.02,130.61,26.02,128.54z"/>
	<path class="st2" d="M41.06,131.75c0.04-0.64,0.07-1.54,0.08-2.48c-1.42-0.08-2.94-0.08-4.35,0.01c0.01,0.95,0.03,1.84,0.09,2.47
		h-1.55c0.1-1.59,0.1-4.76,0-6.35c0.53,0.08,1.04,0.08,1.54,0c-0.04,0.72-0.07,1.78-0.08,2.87c1.4,0.08,2.92,0.09,4.36,0.01
		c-0.01-1.08-0.03-2.14-0.08-2.87c0.53,0.08,1.04,0.08,1.53,0c-0.09,1.59-0.09,4.78,0.03,6.35H41.06z"/>
	<path class="st2" d="M43.93,131.12c0.07-0.48,0.07-0.95,0-1.42c0.8,0.77,2.63,1.13,4.19,1.13c1.27,0,1.8-0.28,1.8-0.84
		c0-0.75-0.8-0.84-2.7-1c-2.09-0.19-3.35-0.52-3.35-1.81c0-1.27,1.13-1.89,3.45-1.89c1.63,0,2.6,0.22,3.8,0.51
		c-0.07,0.46-0.07,0.9,0,1.33c-0.99-0.41-2.3-0.83-3.86-0.83c-1.31,0-1.87,0.26-1.87,0.84c0,0.68,0.68,0.86,2.42,1
		c2.19,0.17,3.63,0.47,3.63,1.84c0,1.26-1.16,1.87-3.47,1.87C46.42,131.84,45.01,131.52,43.93,131.12z"/>
	<path class="st2" d="M54.85,126.36c-1.25,0.02-2.18,0.09-3.06,0.23c0.07-0.4,0.07-0.79,0-1.19c2.82,0.07,4.83,0.07,7.64,0
		c-0.07,0.4-0.07,0.79,0,1.19c-0.9-0.14-1.82-0.21-3.08-0.23c-0.04,1.76-0.02,4.06,0.07,5.39H54.8
		C54.89,130.42,54.89,128.11,54.85,126.36z"/>
	<path class="st2" d="M64.87,131.75c-0.16-0.43-0.32-0.88-0.5-1.33c-1.1-0.03-2.62-0.03-3.73-0.01c-0.2,0.47-0.38,0.93-0.55,1.34
		h-1.67c1.03-2.12,1.99-4.24,2.88-6.35c0.61,0.08,1.8,0.11,2.41,0c0.9,2.12,1.87,4.24,2.9,6.35H64.87z M64.01,129.54
		c-0.47-1.18-0.99-2.35-1.54-3.36c-0.35,0.65-0.92,2-1.48,3.36C61.91,129.57,63.1,129.57,64.01,129.54z"/>
	<path class="st2" d="M66.69,128.54c0-2.16,1.76-3.31,4.53-3.31c0.99,0,2.12,0.14,3.49,0.71c-0.06,0.49-0.06,0.86,0,1.36
		c-1.37-0.83-2.56-1.03-3.41-1.04c-1.91-0.01-3.12,0.82-3.12,2.29c0,1.38,1.02,2.32,3.07,2.32c1.21,0,2.4-0.35,3.46-1.36
		c-0.05,0.5,0.03,0.98,0.09,1.32c-0.96,0.7-2.06,1.07-3.72,1.07C68.28,131.89,66.69,130.61,66.69,128.54z"/>
	<path class="st2" d="M83.24,131.75h-1.85c-0.05-0.89-1.32-2.89-3.86-2.65c0.01,0.85,0.04,1.75,0.08,2.65h-1.62
		c0.1-1.59,0.1-4.76,0-6.35c0.55,0.08,1.08,0.08,1.6,0c-0.04,0.82-0.07,1.74-0.07,2.74c2.16,0.04,3.3-1.49,3.85-2.73
		c0.53,0.08,1.34,0.08,2.01,0c-0.92,1.46-2.81,2.87-4.18,3.13v0.11C80.58,128.8,82.85,130.04,83.24,131.75z"/>
	<path class="st2" d="M89.31,126.36c-1.25,0.02-2.17,0.09-3.06,0.23c0.07-0.4,0.07-0.79,0-1.19c2.82,0.07,4.83,0.07,7.64,0
		c-0.07,0.4-0.07,0.79,0,1.19c-0.9-0.14-1.82-0.21-3.08-0.23c-0.04,1.76-0.02,4.06,0.07,5.39h-1.62
		C89.34,130.42,89.35,128.11,89.31,126.36z"/>
	<path class="st2" d="M94.7,125.4c1.04,0.08,5.28,0.14,6.84,0.03c-0.03,0.42-0.03,0.85,0,1.28c-1.19-0.23-3.68-0.37-5.3-0.35
		c-0.02,0.61-0.03,1.21-0.02,1.82c1.59,0.03,3.56-0.04,4.71-0.12c-0.03,0.35-0.03,0.73,0,1.08c-1.16-0.07-3.12-0.13-4.71-0.09
		c0,0.57,0,1.17,0.03,1.76c1.62,0.02,4.09-0.12,5.28-0.34c-0.03,0.43-0.03,0.88,0,1.3H94.7C94.8,130.13,94.8,126.96,94.7,125.4z"/>
	<path class="st2" d="M102.38,128.54c0-2.16,1.76-3.31,4.53-3.31c0.99,0,2.12,0.14,3.49,0.71c-0.06,0.49-0.06,0.86,0,1.36
		c-1.37-0.83-2.56-1.03-3.41-1.04c-1.91-0.01-3.12,0.82-3.12,2.29c0,1.38,1.02,2.32,3.07,2.32c1.21,0,2.4-0.35,3.46-1.36
		c-0.05,0.5,0.04,0.98,0.09,1.32c-0.96,0.7-2.06,1.07-3.72,1.07C103.96,131.89,102.38,130.61,102.38,128.54z"/>
	<path class="st2" d="M117.41,131.75c0.04-0.64,0.07-1.54,0.08-2.48c-1.43-0.08-2.94-0.08-4.35,0.01c0.01,0.95,0.04,1.84,0.09,2.47
		h-1.55c0.1-1.59,0.1-4.76,0-6.35c0.53,0.08,1.04,0.08,1.54,0c-0.04,0.72-0.07,1.78-0.08,2.87c1.4,0.08,2.92,0.09,4.36,0.01
		c-0.01-1.08-0.04-2.14-0.08-2.87c0.53,0.08,1.04,0.08,1.53,0c-0.09,1.59-0.09,4.78,0.03,6.35H117.41z"/>
	<path class="st2" d="M121.87,126.58c-0.03,1.71,0,3.45,0.08,5.17h-1.54c0.07-2.12,0.07-4.24,0-6.35c0.56,0.07,1.55,0.08,2.12,0
		c1.31,1.77,2.69,3.51,4.12,5.22c0.03-1.74,0.01-3.49-0.08-5.22c0.54,0.08,1.04,0.08,1.52,0c-0.06,2.12-0.05,4.24,0.03,6.35h-2.06
		C124.71,130,123.32,128.27,121.87,126.58z"/>
	<path class="st2" d="M129.23,128.56c0-2.11,1.59-3.33,4.29-3.33s4.28,1.23,4.28,3.33c0,2.1-1.59,3.32-4.28,3.32
		S129.23,130.66,129.23,128.56z M136.34,128.59c0-1.5-1.06-2.4-2.82-2.4c-1.77,0-2.8,0.9-2.8,2.4c0,1.48,1.03,2.33,2.8,2.33
		C135.28,130.92,136.34,130.08,136.34,128.59z"/>
	<path class="st2" d="M138.92,125.4c0.55,0.08,1.12,0.09,1.6,0c-0.08,1.2-0.1,3.86-0.06,5.4c1.25,0,4.03-0.13,5.19-0.32
		c-0.03,0.51-0.03,0.85,0,1.28h-6.73C138.99,129.63,138.99,127.51,138.92,125.4z"/>
	<path class="st2" d="M146.16,128.56c0-2.11,1.59-3.33,4.29-3.33s4.28,1.23,4.28,3.33c0,2.1-1.59,3.32-4.28,3.32
		S146.16,130.66,146.16,128.56z M153.26,128.59c0-1.5-1.06-2.4-2.82-2.4c-1.77,0-2.8,0.9-2.8,2.4c0,1.48,1.03,2.33,2.8,2.33
		C152.2,130.92,153.26,130.08,153.26,128.59z"/>
	<path class="st2" d="M155.5,128.53c0-2.15,1.69-3.28,4.47-3.28c1.03,0,2.54,0.15,3.91,0.72c-0.07,0.55-0.07,1.01,0,1.37
		c-1.12-0.67-2.56-1.05-3.9-1.05c-1.89,0-3,0.87-3,2.25s1.06,2.31,2.87,2.31c0.98,0,2.29-0.28,2.91-1.48
		c-1.37,0-2.79,0.06-3.56,0.15c0.06-0.33,0.04-0.82-0.03-1.22c1.55,0.07,3.31,0.07,4.79,0c-0.06,0.43-0.06,1.06,0,1.58
		c-0.63,1.34-2.33,2-4.12,2C157.03,131.87,155.5,130.57,155.5,128.53z"/>
	<path class="st2" d="M165.19,125.4c0.54,0.08,1.09,0.08,1.6,0c-0.1,1.59-0.1,4.78,0.02,6.35h-1.62
		C165.29,130.16,165.29,126.99,165.19,125.4z"/>
	<path class="st2" d="M168.29,125.4c1.04,0.08,5.28,0.14,6.84,0.03c-0.04,0.42-0.04,0.85,0,1.28c-1.2-0.23-3.69-0.37-5.3-0.35
		c-0.02,0.61-0.03,1.21-0.02,1.82c1.59,0.03,3.56-0.04,4.71-0.12c-0.04,0.35-0.04,0.73,0,1.08c-1.16-0.07-3.12-0.13-4.71-0.09
		c0,0.57,0,1.17,0.04,1.76c1.62,0.02,4.09-0.12,5.28-0.34c-0.04,0.43-0.04,0.88,0,1.3h-6.84
		C168.39,130.13,168.39,126.96,168.29,125.4z"/>
	<path class="st2" d="M176.22,131.12c0.07-0.48,0.07-0.95,0-1.42c0.8,0.77,2.63,1.13,4.19,1.13c1.27,0,1.8-0.28,1.8-0.84
		c0-0.75-0.8-0.84-2.7-1c-2.09-0.19-3.35-0.52-3.35-1.81c0-1.27,1.13-1.89,3.45-1.89c1.63,0,2.6,0.22,3.8,0.51
		c-0.07,0.46-0.07,0.9,0,1.33c-0.99-0.41-2.3-0.83-3.86-0.83c-1.31,0-1.87,0.26-1.87,0.84c0,0.68,0.68,0.86,2.42,1
		c2.19,0.17,3.63,0.47,3.63,1.84c0,1.26-1.16,1.87-3.47,1.87C178.71,131.84,177.3,131.52,176.22,131.12z"/>
</g>
<g>
</g>
<g>
</g>
<g>
</g>
<g>
</g>
<g>
</g>
</svg>
