<?xml version="1.0" encoding="utf-8"?>
<!-- Generator: Adobe Illustrator 25.2.1, SVG Export Plug-In . SVG Version: 6.00 Build 0)  -->
<svg version="1.1" xmlns="http://www.w3.org/2000/svg" xmlns:xlink="http://www.w3.org/1999/xlink" x="0px" y="0px"
	 viewBox="0 0 1296 1728" style="enable-background:new 0 0 1296 1728;" xml:space="preserve">
<style type="text/css">
	.st0{fill:#98E2CD;}
	.st1{fill:#472003;}
	.st2{fill:#43C79F;}
	.st3{fill:none;stroke:#43C79F;stroke-width:3;stroke-miterlimit:10;}
	.st4{fill:url(#SVGID_1_);}
	.st5{fill:url(#SVGID_2_);}
</style>
<g id="Layer_1">
</g>
<g id="Layer_2">
	<g>
		<path class="st0" d="M567.29,1224.01c3.28,49.29,7.8,86.9,11.52,100.16c2.05,7.33,5.71,19.67,18.03,27.82l0,0
			c13.68,9.06,36.16,14.65,58.69,10.45c8.24-1.53,14.61-2.72,21.28-7.12c5.63-3.71,14.38-10.57,21.38-47.95
			c3.92-20.93,8.53-45.98,11.67-83.34C662.99,1224.41,614.15,1223.64,567.29,1224.01z"/>
		<ellipse class="st1" cx="638.72" cy="1224.01" rx="71.44" ry="7.09"/>
		<path class="st2" d="M465.22,657.06c0,0,51.14-22.4,64.71,30.9c13.57,53.3,85.06,40.17,91.32,161.45
			c0.48,2.56,1.31,6.42,2.7,10.87c6.75,21.55,19.09,32.31,21.38,34.63c9.21,9.35,15.52,44.61,3.58,156.9l-1.23,10.03L465.22,657.06z
			"/>
		<path class="st3" d="M621.56,945.5c0,0,35.69,73.96,33.89,281.97"/>
		<linearGradient id="SVGID_1_" gradientUnits="userSpaceOnUse" x1="467.729" y1="845.4216" x2="637.9149" y2="845.4216">
			<stop  offset="0" style="stop-color:#98E2CD"/>
			<stop  offset="1" style="stop-color:#1F8C68"/>
		</linearGradient>
		<path class="st4" d="M467.73,663.83c0,0,86.78,24.71,83.45,129.71c1.32,4.46,3.6,11.95,6.68,21
			c36.32,106.73,87.01,144.37,79.27,193.94c-0.64,4.09-2.07,10.81-5.84,18.53L467.73,663.83z"/>
		<path class="st2" d="M273.3,977.6c0,0,78.44-65.47,174.4,0c0,0,44.23-9.4,100.97,84.24c0,0,22.32,46.85,48.4,67.7
			c30.62,24.48,46.66,100.26,46.66,100.26s-16.1-95.32-76.44-107.67c0,0-58.67,33.35-139.61-29.65S273.3,977.6,273.3,977.6z"/>
		<linearGradient id="SVGID_2_" gradientUnits="userSpaceOnUse" x1="283.8464" y1="1045.1666" x2="455.3215" y2="1045.1666">
			<stop  offset="0" style="stop-color:#98E2CD"/>
			<stop  offset="1" style="stop-color:#1F8C68"/>
		</linearGradient>
		<path class="st5" d="M283.85,990.12c0,0,81.42-35.24,130.94,50.05s39.76,65.2,39.76,65.2L283.85,990.12z"/>
		<g>
			<path class="st2" d="M567.29,1120.09c2.98,0.38,5.91,1.13,8.8,2.02c2.89,0.88,5.72,1.97,8.51,3.18
				c5.55,2.46,10.86,5.51,15.84,9.06c9.95,7.12,18.5,16.31,25,26.75c3.19,5.25,6.01,10.73,8.22,16.45
				c2.17,5.72,4.01,11.57,5.16,17.54c2.45,11.91,3.09,24.09,1.83,36.01c-1.66-11.87-3.79-23.49-7.16-34.66
				c-1.62-5.6-3.68-11.04-5.96-16.35l-1.8-3.94c-0.6-1.31-1.32-2.57-1.97-3.85l-0.98-1.93l-1.08-1.87c-0.74-1.23-1.41-2.51-2.2-3.71
				c-6.07-9.77-13.63-18.59-22.43-26.12c-4.4-3.77-9.1-7.23-14.06-10.36C578.01,1125.21,572.82,1122.37,567.29,1120.09z"/>
		</g>
	</g>
</g>
</svg>
