<svg id="Icons" height="512" viewBox="0 0 74 74" width="512" xmlns="http://www.w3.org/2000/svg"><path d="m65 37h-2v-25h-52v25h-2v-26a1 1 0 0 1 1-1h54a1 1 0 0 1 1 1z"/><path d="m46.07 11.77-9.07-7.47-9.07 7.47-1.28-1.54 9.71-8a1 1 0 0 1 1.28 0l9.71 8z"/><path d="m71 72h-68a1 1 0 0 1 -1-1v-40a1 1 0 0 1 .36-.77l7-5.76 1.28 1.53-6.64 5.47v38.53h66v-38.53l-6.64-5.47 1.28-1.54 7 5.76a1 1 0 0 1 .36.78v40a1 1 0 0 1 -1 1z"/><path d="m37 61a1 1 0 0 1 -.65-.24l-34-29 1.3-1.52 33.35 28.45 33.35-28.45 1.3 1.52-34 29a1 1 0 0 1 -.65.24z"/><path d="m59.21 44.94h2v30.53h-2z" transform="matrix(.707 -.707 .707 .707 -24.94 60.21)"/><path d="m-1.47 59.21h30.53v2h-30.53z" transform="matrix(.707 -.707 .707 .707 -38.53 27.39)"/><path d="m38.75 46h-3.5a1 1 0 0 1 -1-.8l-.62-3.2a12.4 12.4 0 0 1 -2-.84l-2.74 1.84a1 1 0 0 1 -1.26-.12l-2.48-2.48a1 1 0 0 1 -.15-1.29l1.81-2.71a12.4 12.4 0 0 1 -.84-2l-3.2-.64a1 1 0 0 1 -.8-1v-3.5a1 1 0 0 1 .8-1l3.2-.64a12.4 12.4 0 0 1 .84-2l-1.81-2.73a1 1 0 0 1 .12-1.26l2.48-2.48a1 1 0 0 1 1.29-.15l2.71 1.81a12.4 12.4 0 0 1 2-.84l.64-3.2a1 1 0 0 1 1-.8h3.5a1 1 0 0 1 1 .8l.64 3.2a12.4 12.4 0 0 1 2 .84l2.73-1.81a1 1 0 0 1 1.26.12l2.48 2.48a1 1 0 0 1 .15 1.29l-1.84 2.71a12.4 12.4 0 0 1 .84 2l3.2.64a1 1 0 0 1 .8 1v3.5a1 1 0 0 1 -.8 1l-3.2.64a12.4 12.4 0 0 1 -.84 2l1.84 2.73a1 1 0 0 1 -.12 1.26l-2.48 2.48a1 1 0 0 1 -1.26.12l-2.74-1.81a12.4 12.4 0 0 1 -2 .84l-.64 3.2a1 1 0 0 1 -1.01.8zm-2.68-2h1.86l.6-3a1 1 0 0 1 .75-.78 9.51 9.51 0 0 0 2.65-1.09 1 1 0 0 1 1.07 0l2.54 1.7 1.31-1.31-1.69-2.52a1 1 0 0 1 0-1.07 9.51 9.51 0 0 0 1.09-2.65 1 1 0 0 1 .78-.75l3-.6v-1.86l-3-.6a1 1 0 0 1 -.78-.75 9.51 9.51 0 0 0 -1.09-2.65 1 1 0 0 1 0-1.07l1.69-2.54-1.31-1.31-2.54 1.7a1 1 0 0 1 -1.07 0 9.51 9.51 0 0 0 -2.65-1.09 1 1 0 0 1 -.75-.78l-.6-3h-1.86l-.6 3a1 1 0 0 1 -.75.78 9.51 9.51 0 0 0 -2.65 1.09 1 1 0 0 1 -1.07 0l-2.54-1.7-1.31 1.31 1.69 2.54a1 1 0 0 1 0 1.07 9.51 9.51 0 0 0 -1.09 2.65 1 1 0 0 1 -.78.75l-3 .6v1.86l3 .6a1 1 0 0 1 .78.75 9.51 9.51 0 0 0 1.09 2.65 1 1 0 0 1 0 1.07l-1.69 2.54 1.31 1.31 2.54-1.7a1 1 0 0 1 1.07 0 9.51 9.51 0 0 0 2.65 1.09 1 1 0 0 1 .75.78z"/><path d="m37 38.1a7.1 7.1 0 1 1 7.1-7.1 7.11 7.11 0 0 1 -7.1 7.1zm0-12.2a5.1 5.1 0 1 0 5.1 5.1 5.11 5.11 0 0 0 -5.1-5.1z"/></svg>