<svg id="Capa_1" enable-background="new 0 0 512 512" height="512" viewBox="0 0 512 512" width="512" xmlns="http://www.w3.org/2000/svg"><g><g><g><g><circle cx="239.829" cy="319.317" r="7.5"/></g></g><g><path d="m280.959 406.296h-82.26c-4.143 0-7.5 3.357-7.5 7.5s3.357 7.5 7.5 7.5h82.26c4.143 0 7.5-3.357 7.5-7.5s-3.357-7.5-7.5-7.5z"/><path d="m280.959 373.078h-82.26c-4.143 0-7.5 3.357-7.5 7.5s3.357 7.5 7.5 7.5h82.26c4.143 0 7.5-3.357 7.5-7.5s-3.357-7.5-7.5-7.5z"/><path d="m239.829 305.057c4.143 0 7.5-3.357 7.5-7.5v-21c0-4.143-3.357-7.5-7.5-7.5s-7.5 3.357-7.5 7.5v21c0 4.142 3.358 7.5 7.5 7.5z"/><path d="m434.874 273.411h-41.13c-4.143 0-7.5 3.357-7.5 7.5s3.357 7.5 7.5 7.5h41.13c4.143 0 7.5-3.357 7.5-7.5s-3.357-7.5-7.5-7.5z"/><path d="m434.874 310.78h-82.26c-4.143 0-7.5 3.357-7.5 7.5s3.357 7.5 7.5 7.5h82.26c4.143 0 7.5-3.357 7.5-7.5s-3.357-7.5-7.5-7.5z"/><path d="m434.874 348.149h-82.26c-4.143 0-7.5 3.357-7.5 7.5s3.357 7.5 7.5 7.5h82.26c4.143 0 7.5-3.357 7.5-7.5s-3.357-7.5-7.5-7.5z"/><path d="m434.874 385.519h-82.26c-4.143 0-7.5 3.357-7.5 7.5s3.357 7.5 7.5 7.5h82.26c4.143 0 7.5-3.357 7.5-7.5s-3.357-7.5-7.5-7.5z"/><path d="m93.938 419.675h-64.647c-7.88 0-14.291-6.411-14.291-14.291v-367.185c0-7.88 6.411-14.291 14.291-14.291h129.13v104.486c0 4.737 2.609 9.041 6.809 11.231 4.202 2.191 9.223 1.868 13.108-.842l34.546-24.103 34.545 24.102c2.173 1.517 4.702 2.286 7.244 2.286 2.002 0 4.013-.478 5.863-1.442 4.2-2.191 6.81-6.495 6.81-11.232v-104.486h129.13c7.881 0 14.292 6.411 14.292 14.291v136.966c0 4.143 3.357 7.5 7.5 7.5s7.5-3.357 7.5-7.5v-136.966c0-16.151-13.141-29.291-29.292-29.291-7.983 0-354.758 0-367.185 0-16.151 0-29.291 13.14-29.291 29.291v367.185c0 16.151 13.14 29.291 29.291 29.291h64.646c4.143 0 7.5-3.357 7.5-7.5s-3.357-7.5-7.499-7.5zm79.483-395.767h78.925v100.016l-32.214-22.476c-4.336-3.023-10.162-3.023-14.496 0l-32.215 22.477z"/><path d="m478.422 240.246h-.184v-18.968c0-10.229-8.321-18.551-18.55-18.551h-285.876c-10.229 0-18.55 8.322-18.55 18.551v18.968h-.184c-18.515 0-33.578 15.063-33.578 33.578v195.689c0 18.515 15.063 33.578 33.578 33.578h323.344c18.515 0 33.578-15.063 33.578-33.578v-195.689c0-18.514-15.063-33.578-33.578-33.578zm-308.16-18.968c0-1.958 1.593-3.551 3.55-3.551h135.438v234.971h-135.438c-1.957 0-3.55-1.593-3.55-3.551zm326.738 248.236c0 10.244-8.334 18.578-18.578 18.578h-323.344c-10.244 0-18.578-8.334-18.578-18.578v-195.69c0-10.244 8.334-18.578 18.578-18.578h.184v193.901c0 10.229 8.321 18.551 18.55 18.551h285.877c10.229 0 18.55-8.322 18.55-18.551v-38.647c0-4.143-3.357-7.5-7.5-7.5s-7.5 3.357-7.5 7.5v38.647c0 1.958-1.593 3.551-3.55 3.551h-135.439v-234.97h135.438c1.957 0 3.55 1.593 3.55 3.551v154.389c0 4.143 3.357 7.5 7.5 7.5s7.5-3.357 7.5-7.5v-120.422h.184c10.244 0 18.578 8.334 18.578 18.578z"/><path d="m239.829 353.601c31.252 0 56.677-25.426 56.677-56.678s-25.425-56.677-56.677-56.677-56.678 25.425-56.678 56.677 25.426 56.678 56.678 56.678zm0-98.355c22.98 0 41.677 18.696 41.677 41.677s-18.696 41.678-41.677 41.678-41.678-18.696-41.678-41.678c0-22.981 18.697-41.677 41.678-41.677z"/></g></g></g></svg>